<?xml version="1.0" standalone="no"?>
<!DOCTYPE svg PUBLIC "-//W3C//DTD SVG 20010904//EN"
 "http://www.w3.org/TR/2001/REC-SVG-20010904/DTD/svg10.dtd">
<svg version="1.0" xmlns="http://www.w3.org/2000/svg"
 width="477.000000pt" height="512.000000pt" viewBox="0 0 477.000000 512.000000"
 preserveAspectRatio="xMidYMid meet">
<metadata>
Created by potrace 1.10, written by Peter Selinger 2001-2011
</metadata>
<g transform="translate(0.000000,512.000000) scale(0.050000,-0.050000)"
fill="#17de5d" stroke="none">
<path d="M5248 10172 c1 -34 -8 -60 -20 -58 -12 2 -21 -9 -21 -25 0 -25 4 -25
33 1 18 17 37 26 42 22 4 -5 8 21 9 56 0 36 -10 65 -22 65 -12 0 -21 -27 -21
-61z"/>
<path d="M6248 10173 c1 -35 -8 -61 -20 -59 -12 2 -21 -9 -21 -25 0 -25 4 -25
33 1 18 17 38 26 43 20 6 -5 9 10 9 35 -1 30 8 43 28 39 24 -6 25 -2 5 18 -47
49 -78 37 -77 -29z"/>
<path d="M6789 10193 c7 -33 5 -52 -6 -45 -10 7 -24 -2 -30 -19 -7 -16 -33
-38 -58 -48 -30 -12 -34 -19 -12 -20 17 0 43 12 56 28 27 32 62 33 87 1 8 -11
10 4 3 34 -15 65 7 114 33 73 12 -18 17 -19 18 -3 0 34 -35 51 -51 24 -10 -16
-20 -14 -33 5 -13 18 -15 9 -7 -30z"/>
<path d="M7248 10173 c1 -35 -8 -61 -20 -59 -12 2 -21 -9 -21 -25 0 -25 4 -25
33 1 18 17 38 26 43 20 6 -5 9 10 9 35 -1 30 8 43 28 39 24 -6 25 -2 5 18 -47
49 -78 37 -77 -29z"/>
<path d="M7789 10193 c7 -33 5 -52 -6 -45 -10 7 -24 -2 -30 -19 -7 -16 -33
-38 -58 -48 -30 -12 -34 -19 -12 -20 17 0 43 12 56 28 27 32 62 33 87 1 8 -11
10 4 3 34 -15 65 7 114 33 73 12 -18 17 -19 18 -3 0 34 -35 51 -51 24 -10 -16
-20 -14 -33 5 -13 18 -15 9 -7 -30z"/>
<path d="M8791 10193 c6 -31 3 -53 -5 -48 -9 4 -36 -13 -60 -39 -45 -46 -35
-67 10 -22 31 31 84 38 84 11 0 -12 5 -17 10 -12 6 6 -4 46 -20 89 -21 54 -27
61 -19 21z"/>
<path d="M8904 9630 c3 -22 -4 -38 -16 -36 -23 4 -21 -88 2 -111 8 -7 12 1 10
17 -8 54 0 83 19 71 11 -7 14 -25 8 -42 -6 -16 -3 -29 7 -29 30 0 26 84 -6
128 -30 41 -30 41 -24 2z"/>
<path d="M4040 7240 c-258 -209 -478 -379 -488 -379 -10 -1 -11 81 -4 189 l14
190 -161 0 -161 0 0 -318 0 -319 -335 -267 c-184 -146 -378 -297 -430 -335
-132 -94 -132 -94 218 -84 l312 8 753 675 c731 656 753 674 794 642 24 -17
469 -415 990 -882 522 -468 1152 -1033 1402 -1257 l453 -406 402 -6 c220 -3
401 -2 401 1 0 4 -53 46 -117 93 -112 82 -566 442 -2608 2070 -528 421 -961
765 -962 764 -2 0 -214 -171 -473 -379z m-531 -518 c6 -10 -3 -23 -19 -29 -17
-7 -30 -23 -30 -37 1 -19 6 -17 19 3 10 17 26 23 35 14 9 -9 0 -28 -19 -42
-19 -14 -30 -29 -26 -34 5 -5 -7 -10 -28 -11 -35 -3 -35 0 -4 75 33 79 51 94
72 61z m3688 -1494 c18 -14 23 -32 12 -50 -13 -23 -11 -23 13 -4 18 15 40 17
58 6 24 -15 24 -20 -4 -31 -19 -7 -29 -25 -23 -40 9 -24 16 -23 40 2 35 34 67
38 67 8 0 -33 -86 -56 -123 -32 -19 11 -30 28 -25 37 6 9 -11 24 -37 34 -25
10 -60 34 -76 54 -26 31 -25 34 1 19 24 -13 25 -11 7 9 -18 19 -18 31 0 50 18
21 27 19 42 -7 10 -18 31 -43 48 -55z m243 -211 c33 -35 60 -70 60 -79 0 -22
-88 -3 -97 22 -3 11 -15 15 -25 9 -11 -7 -17 0 -13 15 3 14 -5 24 -18 22 -14
-3 -19 11 -13 35 15 54 36 49 106 -24z"/>
<path d="M4215 6445 c-4 -8 -4 -67 1 -130 l8 -115 118 0 118 0 0 130 0 130
-119 0 c-65 0 -122 -7 -126 -15z"/>
<path d="M4574 6445 c-5 -8 -8 -64 -6 -125 l3 -110 124 -6 125 -6 0 131 0 131
-119 0 c-65 0 -123 -7 -127 -15z"/>
<path d="M4219 6090 c-1 -5 -2 -55 -2 -110 0 -55 1 -109 2 -120 0 -11 55 -20
121 -20 l120 0 0 130 0 130 -120 0 c-66 0 -121 -4 -121 -10z"/>
<path d="M4575 6085 c-4 -8 -7 -64 -6 -125 l1 -110 125 -6 125 -6 0 131 0 131
-119 0 c-65 0 -122 -7 -126 -15z"/>
<path d="M3260 5535 l0 -235 -190 0 -190 0 0 230 0 230 -130 0 -130 0 0 -580
0 -580 130 0 130 0 0 240 0 240 190 0 190 0 0 -240 0 -240 133 0 133 0 -14
150 c-16 174 -8 183 51 59 138 -294 626 -303 774 -15 l37 72 12 -60 c31 -157
199 -242 436 -220 256 23 313 107 322 478 l6 253 -117 7 c-145 8 -133 29 -133
-234 0 -249 -27 -310 -137 -310 -116 0 -132 33 -143 301 l-10 244 -120 0 -120
0 5 -128 c5 -108 1 -121 -20 -89 -114 170 -221 231 -405 231 -179 0 -390 -123
-390 -227 0 -13 -11 -40 -25 -59 -21 -29 -26 32 -25 338 l0 373 -125 3 -125 3
0 -235z m766 -418 c156 -83 108 -317 -65 -317 -163 0 -237 167 -125 279 65 65
119 76 190 38z"/>
<path d="M5328 5320 c-200 -80 -152 -374 70 -430 109 -27 138 -100 50 -122
-46 -12 -83 0 -209 67 -18 9 -103 -153 -90 -173 79 -127 516 -86 576 54 13 30
25 57 28 62 3 4 30 -22 60 -58 143 -170 398 -183 597 -31 91 69 88 81 -22 130
-92 41 -92 41 -143 1 -96 -76 -285 -21 -285 83 0 39 11 40 265 35 l265 -6 -4
83 c-15 342 -481 453 -701 166 -44 -57 -65 -106 -65 -153 0 -75 -11 -82 -58
-39 -18 15 -77 45 -132 65 -182 68 -120 144 80 98 61 -14 68 -8 123 121 23 54
-296 91 -405 47z m891 -183 c58 -63 35 -77 -120 -77 -148 0 -157 6 -108 76 43
61 171 61 228 1z"/>
<path d="M2973 4450 c-52 -51 -15 -116 75 -133 52 -9 62 -49 18 -66 -21 -8
-44 -1 -58 18 -25 34 -68 42 -68 11 0 -45 100 -87 152 -63 71 33 58 104 -27
142 -36 15 -65 36 -65 45 0 24 69 19 96 -8 33 -33 57 -2 31 40 -29 46 -115 54
-154 14z"/>
<path d="M3413 4439 c-72 -57 -71 -142 1 -199 135 -106 298 70 177 191 -60 60
-109 62 -178 8z m147 -49 c47 -57 8 -133 -66 -126 -65 6 -93 58 -66 127 14 38
100 37 132 -1z"/>
<path d="M3860 4352 l0 -132 80 0 c44 0 80 9 80 20 0 11 -22 20 -49 20 -45 0
-49 9 -55 103 -9 161 -56 152 -56 -11z"/>
<path d="M4253 4466 c-31 -31 -12 -187 27 -226 87 -87 186 -12 176 134 -9 138
-56 138 -56 0 0 -70 -9 -113 -25 -119 -54 -20 -75 10 -75 105 0 92 -19 135
-47 106z"/>
<path d="M4680 4450 c0 -17 18 -30 43 -30 39 0 41 -7 29 -100 -11 -82 -8 -100
17 -100 24 0 31 23 31 100 0 87 5 100 40 100 22 0 40 13 40 30 0 23 -24 30
-100 30 -76 0 -100 -7 -100 -30z"/>
<path d="M5100 4350 c0 -102 6 -130 30 -130 24 0 30 28 30 130 0 102 -6 130
-30 130 -24 0 -30 -28 -30 -130z"/>
<path d="M5429 4431 c-86 -87 -27 -231 95 -231 51 0 136 88 136 140 0 54 -86
140 -140 140 -23 0 -64 -22 -91 -49z m161 -91 c0 -90 -134 -111 -147 -24 -11
80 11 107 82 100 60 -5 65 -12 65 -76z"/>
<path d="M5895 4469 c-30 -30 -17 -249 14 -249 19 0 31 26 35 75 l6 75 47 -75
c72 -116 103 -99 103 55 0 73 -9 130 -20 130 -11 0 -20 -43 -21 -95 0 -105 0
-105 -109 44 -22 30 -47 48 -55 40z"/>
<path d="M6365 4457 c-52 -52 -20 -124 63 -140 21 -4 42 -17 46 -30 12 -36
-50 -48 -82 -16 -37 37 -52 37 -52 0 0 -70 162 -86 188 -19 18 48 -9 85 -80
109 -37 12 -68 30 -68 41 0 26 68 22 96 -6 33 -33 57 -2 31 40 -26 42 -109 54
-142 21z"/>
<path d="M0 860 c0 -13 1513 -20 4500 -20 2987 0 4500 7 4500 20 0 13 -1513
20 -4500 20 -2987 0 -4500 -7 -4500 -20z"/>
</g>
</svg>
